<?xml version="1.0" encoding="UTF-8" standalone="no"?>
<svg
   xmlns:dc="http://purl.org/dc/elements/1.1/"
   xmlns:cc="http://creativecommons.org/ns#"
   xmlns:rdf="http://www.w3.org/1999/02/22-rdf-syntax-ns#"
   xmlns:svg="http://www.w3.org/2000/svg"
   xmlns="http://www.w3.org/2000/svg"
   xmlns:sodipodi="http://sodipodi.sourceforge.net/DTD/sodipodi-0.dtd"
   xmlns:inkscape="http://www.inkscape.org/namespaces/inkscape"
   version="1.1"
   width="240.00011"
   height="141.00011"
   id="svg311"
   viewBox="0 0 240.00011 141.00011"
   sodipodi:docname="logoomega.svg"
   inkscape:version="0.92.4 (5da689c313, 2019-01-14)">
  <metadata
     id="metadata317">
    <rdf:RDF>
      <cc:Work
         rdf:about="">
        <dc:format>image/svg+xml</dc:format>
        <dc:type
           rdf:resource="http://purl.org/dc/dcmitype/StillImage" />
        <dc:title></dc:title>
      </cc:Work>
    </rdf:RDF>
  </metadata>
  <defs
     id="defs315" />
  <sodipodi:namedview
     pagecolor="#ffffff"
     bordercolor="#666666"
     borderopacity="1"
     objecttolerance="10"
     gridtolerance="10"
     guidetolerance="10"
     inkscape:pageopacity="0"
     inkscape:pageshadow="2"
     inkscape:window-width="1920"
     inkscape:window-height="1001"
     id="namedview313"
     showgrid="false"
     showborder="false"
     inkscape:zoom="1.6737576"
     inkscape:cx="156.74373"
     inkscape:cy="70.500053"
     inkscape:window-x="-9"
     inkscape:window-y="-9"
     inkscape:window-maximized="1"
     inkscape:current-layer="svg311" />
  <g
     id="Layer1000">
    <path
       d="M 240.945,46.3443 C 240.9328,46.348 144.0826,75.4726 51.7633,-0.7077 L 240.945,-0.7318 Z"
       style="fill:#ffffff;fill-opacity:0;fill-rule:evenodd"
       id="path4"
       inkscape:connector-curvature="0" />
  </g>
  <g
     id="g1166"
     transform="matrix(1.6388861,0,0,1.4884582,-73.981233,3.0681109)">
    <path
       inkscape:connector-curvature="0"
       id="path135"
       style="fill:#102a83;fill-rule:evenodd"
       d="m 140.1759,13.7734 37.9868,9.938 -3.6289,0.7381 -56.054,-7.363 -57.9081,7.363 -3.6278,-0.7381 39.7619,-9.938 z" />
    <path
       inkscape:connector-curvature="0"
       id="path137"
       style="fill:#ffcb00;fill-rule:evenodd"
       d="m 140.1181,13.2892 37.9871,9.938 -3.6289,0.7379 -56.054,-7.363 -57.9081,7.363 -3.629,-0.7379 39.7639,-9.938 z" />
    <path
       inkscape:connector-curvature="0"
       id="path139"
       style="fill:#ffffff;fill-rule:evenodd"
       d="m 59.3667,46.6241 0.2801,0.4221 0.1669,0.068 h 0.6239 l 2.5991,0.044 -0.0159,-0.006 -1.383,-0.8192 -1.387,-1.014 -1.351,-1.525 -0.8132,-1.603 -0.3198,-1.436 0.0618,-1.836 0.5562,-1.978 1.112,-1.783 1.4678,-1.4199 1.8091,-1.1599 1.9099,-0.7651 2.035,-0.527 1.942,-0.106 3.282,0.013 1.8071,0.3691 1.9729,0.5828 2.2351,1.2101 1.1699,1.0849 0.9141,1.074 0.7209,1.254 0.4051,1.2552 0.1851,1.5288 -0.1222,1.6112 -0.2548,1.021 -0.4921,1.084 -0.6251,1.0519 -1.0479,1.086 -0.929,0.7441 -1.0289,0.5808 -0.9632,0.4722 h 3.255 l 0.2772,-0.066 0.2279,-0.1831 0.1531,-0.2951 0.2038,-1.0579 2.0582,-0.165 0.076,5.9071 -11.056,0.0519 0.595,-5.6551 1.4548,-0.324 0.693,-0.381 0.7042,-0.6769 0.487,-0.703 0.3818,-0.726 0.182,-0.752 0.2211,-0.86 0.0839,-1.012 0.038,-0.915 -0.1579,-1.0321 -0.1389,-0.4068 -0.4232,-1.017 -0.415,-0.779 -0.853,-0.8532 -0.957,-0.7668 -1.0289,-0.5102 -0.8669,-0.2608 -1.2792,-0.0842 -1.4729,0.0822 -1.1271,0.3138 -1.167,0.5451 -0.885,0.788 -0.803,0.8839 c -0.1789,0.3251 -0.3578,0.6502 -0.5358,0.9762 -0.1352,0.4178 -0.2701,0.8379 -0.4051,1.2569 -0.032,0.2299 -0.064,0.4601 -0.096,0.6911 v 1.296 c 0.034,0.3098 0.068,0.6199 0.1009,0.93 l 0.4101,1.4789 c 0.1421,0.2769 0.2829,0.553 0.4241,0.828 l 0.4938,0.555 0.343,0.392 0.5162,0.4 0.6378,0.3379 1.3932,0.46 0.3699,5.4522 H 57.0536 l -0.0748,-5.745 2.1798,-0.1462 z" />
    <path
       inkscape:connector-curvature="0"
       id="path141"
       style="fill:#ffffff;fill-rule:evenodd"
       d="m 83.3804,31.2085 h 9.3299 l 3.6012,12.2051 3.585,-12.2051 h 9.297 v 20.0622 h -5.792 V 35.9726 L 98.9083,51.2707 H 93.6665 L 89.1883,35.9726 v 15.2981 h -5.8079 z" />
    <path
       inkscape:connector-curvature="0"
       id="path143"
       style="fill:#ffffff;fill-rule:evenodd"
       d="m 110.434,31.2085 h 19 v 4.2831 h -11.8939 v 3.191 h 11.0339 v 4.0909 h -11.0339 v 3.9521 h 12.2409 v 4.5451 h -19.347 z" />
    <path
       inkscape:connector-curvature="0"
       id="path145"
       style="fill:#ffffff;fill-rule:evenodd"
       d="m 141.8682,44.0021 v -4.1709 h 10.9539 v 8.5518 c -2.0948,1.247 -3.9489,2.1022 -5.5618,2.5512 -1.6141,0.453 -3.5272,0.6769 -5.7391,0.6769 -2.7249,0 -4.943,-0.4059 -6.658,-1.2189 -1.7209,-0.8082 -3.0509,-2.018 -3.9909,-3.6252 -0.945,-1.6059 -1.4221,-3.447 -1.4221,-5.525 0,-2.1909 0.519,-4.0969 1.55,-5.7178 1.0369,-1.616 2.5489,-2.844 4.5419,-3.685 1.5551,-0.6492 3.6491,-0.9712 6.2782,-0.9712 2.5319,0 4.43,0.2001 5.6908,0.6021 1.2552,0.4019 2.2972,1.023 3.13,1.868 0.8292,0.8411 1.4542,1.9109 1.8712,3.2091 l -6.8392,1.065 c -0.284,-0.756 -0.7639,-1.3362 -1.438,-1.7371 -0.6678,-0.4019 -1.5278,-0.602 -2.5699,-0.602 -1.555,0 -2.7941,0.4711 -3.719,1.415 -0.9241,0.9479 -1.3901,2.4381 -1.3901,4.483 0,2.173 0.4711,3.723 1.4071,4.6531 0.9289,0.9289 2.2331,1.3958 3.905,1.3958 0.7909,0 1.55,-0.1018 2.266,-0.3028 0.7209,-0.2012 1.5489,-0.542 2.473,-1.023 v -1.8921 z" />
    <path
       inkscape:connector-curvature="0"
       id="path147"
       style="fill:#ffffff;fill-rule:evenodd"
       d="m 169.5205,47.9587 h -8.0791 l -1.1109,3.312 h -7.2459 l 8.6239,-20.0622 h 7.732 l 8.629,20.0622 h -7.422 z m -1.4851,-4.339 -2.5379,-7.2122 -2.5231,7.2122 z" />
    <path
       inkscape:connector-curvature="0"
       id="path149"
       style="fill:#ffffff;fill-rule:evenodd"
       d="m 59.579,55.4895 h 2.073 l 2.7031,3.473 v -3.473 h 2.092 v 6.277 h -2.092 L 61.665,58.3204 v 3.4461 h -2.086 z m 13.9822,4.4359 H 69.566 c 0.0352,0.2801 0.1222,0.4881 0.2591,0.625 0.1919,0.1979 0.4451,0.2951 0.754,0.2951 0.1959,0 0.383,-0.0422 0.559,-0.1281 0.108,-0.055 0.224,-0.1491 0.347,-0.2869 l 1.965,0.1579 c -0.3019,0.4581 -0.6631,0.7849 -1.0871,0.9839 -0.4249,0.197 -1.033,0.296 -1.827,0.296 -0.6888,0 -1.231,-0.0848 -1.627,-0.254 -0.3938,-0.169 -0.722,-0.44 -0.9808,-0.8099 -0.2591,-0.3699 -0.3901,-0.803 -0.3901,-1.3031 0,-0.7109 0.2611,-1.286 0.781,-1.7248 0.521,-0.44 1.2401,-0.6602 2.158,-0.6602 0.7441,0 1.332,0.0992 1.762,0.2962 0.432,0.1959 0.7611,0.483 0.985,0.8549 0.226,0.3739 0.3371,0.8609 0.3371,1.4599 z M 71.535,59.0903 c -0.0389,-0.337 -0.1429,-0.5788 -0.3099,-0.7228 -0.1689,-0.146 -0.39,-0.2191 -0.6641,-0.2191 -0.3178,0 -0.5698,0.1111 -0.7608,0.3299 -0.1202,0.1372 -0.197,0.3402 -0.2291,0.612 z m 6.8122,-1.8709 h 1.8669 v 4.294 l 0.0051,0.2021 c 0,0.2849 -0.0712,0.557 -0.2092,0.8158 -0.1389,0.2582 -0.3229,0.4671 -0.5539,0.6262 -0.231,0.161 -0.523,0.2769 -0.8759,0.3469 -0.354,0.0709 -0.76,0.108 -1.2172,0.108 -1.0448,0 -1.7629,-0.138 -2.1529,-0.413 -0.3901,-0.273 -0.5851,-0.6389 -0.5851,-1.099 0,-0.0581 0.0031,-0.1341 0.0102,-0.2321 l 1.9338,0.193 c 0.0491,0.1582 0.1242,0.2662 0.2262,0.326 0.1469,0.0881 0.3308,0.1332 0.5539,0.1332 0.2869,0 0.5009,-0.0672 0.6429,-0.2012 0.142,-0.135 0.212,-0.3688 0.212,-0.7039 v -0.688 c -0.195,0.2019 -0.3909,0.3501 -0.587,0.442 -0.307,0.1411 -0.6378,0.2131 -0.995,0.2131 -0.695,0 -1.256,-0.2661 -1.6849,-0.7971 -0.3019,-0.377 -0.4541,-0.875 -0.4541,-1.493 0,-0.7089 0.1962,-1.2481 0.5871,-1.6191 0.392,-0.3719 0.9039,-0.557 1.538,-0.557 0.406,0 0.739,0.0601 1.001,0.18 0.2639,0.119 0.5099,0.318 0.7381,0.5961 z m -1.876,2.2051 c 0,0.328 0.08,0.5718 0.2398,0.7299 0.161,0.1579 0.3711,0.2379 0.6322,0.2379 0.248,0 0.4569,-0.0828 0.6239,-0.2469 0.1689,-0.163 0.252,-0.4119 0.252,-0.7421 0,-0.332 -0.0879,-0.5848 -0.2639,-0.76 -0.1752,-0.1749 -0.3912,-0.2628 -0.6472,-0.2628 -0.254,0 -0.4578,0.08 -0.608,0.241 -0.1528,0.161 -0.2288,0.43 -0.2288,0.803 z m 4.7019,0.0808 c 0,-0.6928 0.2681,-1.2659 0.803,-1.7138 0.5369,-0.4502 1.258,-0.6752 2.1699,-0.6752 1.0412,0 1.8292,0.2642 2.3602,0.792 0.428,0.4252 0.642,0.9501 0.642,1.5721 0,0.699 -0.2662,1.2719 -0.796,1.7189 -0.5292,0.4462 -1.2631,0.669 -2.2011,0.669 -0.8359,0 -1.5111,-0.1849 -2.0279,-0.5559 -0.6341,-0.4589 -0.9501,-1.0619 -0.9501,-1.8071 z m 1.9981,-0.004 c 0,0.406 0.0938,0.7061 0.2829,0.8992 0.1871,0.1939 0.4221,0.292 0.707,0.292 0.2871,0 0.5229,-0.097 0.7069,-0.288 0.186,-0.1911 0.277,-0.4972 0.277,-0.921 0,-0.3932 -0.093,-0.686 -0.2778,-0.8802 -0.186,-0.191 -0.417,-0.2868 -0.6911,-0.2868 -0.2911,0 -0.5321,0.0969 -0.7209,0.2919 -0.189,0.1959 -0.284,0.4941 -0.284,0.8929 z m 0.9408,-4.1179 h 1.7141 l -1.5811,1.279 H 83.29 Z m 7.8761,4.6061 1.8941,0.1879 c -0.1032,0.345 -0.2761,0.6449 -0.5131,0.8969 -0.2389,0.2531 -0.5431,0.449 -0.915,0.5902 -0.3691,0.138 -0.8399,0.2089 -1.4119,0.2089 -0.5522,0 -1.0112,-0.046 -1.378,-0.135 -0.3682,-0.0901 -0.684,-0.235 -0.9482,-0.4371 -0.265,-0.2018 -0.4728,-0.4368 -0.621,-0.7078 -0.1508,-0.271 -0.2259,-0.6301 -0.2259,-1.0791 0,-0.468 0.0901,-0.8581 0.2741,-1.1699 0.1338,-0.2282 0.316,-0.432 0.5479,-0.6131 0.233,-0.1809 0.47,-0.3169 0.716,-0.4051 0.3881,-0.14 0.8859,-0.21 1.493,-0.21 0.849,0 1.4959,0.1332 1.9429,0.3991 0.4442,0.2639 0.758,0.6531 0.9371,1.1639 l -1.8751,0.218 c -0.0589,-0.1939 -0.1658,-0.3399 -0.322,-0.438 -0.1548,-0.1 -0.362,-0.1479 -0.625,-0.1479 -0.3289,0 -0.597,0.104 -0.8,0.3101 -0.2038,0.2069 -0.307,0.5198 -0.307,0.9399 0,0.3739 0.1032,0.6571 0.305,0.8521 0.2022,0.1939 0.4601,0.29 0.7742,0.29 0.2599,0 0.4799,-0.0581 0.6579,-0.1752 0.178,-0.117 0.311,-0.2959 0.4,-0.5388 z m 2.8839,-4.5 h 1.9942 v 1.1868 H 94.872 Z m 0,1.7299 h 1.9942 v 4.546 H 94.872 Z m 3.0221,2.2859 c 0,-0.6928 0.2681,-1.2659 0.803,-1.7138 0.536,-0.4502 1.258,-0.6752 2.1699,-0.6752 1.0421,0 1.8292,0.2642 2.3602,0.792 0.4288,0.4252 0.6429,0.9501 0.6429,1.5721 0,0.699 -0.2671,1.2719 -0.796,1.7189 -0.5301,0.4462 -1.264,0.669 -2.202,0.669 -0.8359,0 -1.5111,-0.1849 -2.0279,-0.5559 -0.6341,-0.4589 -0.9501,-1.0619 -0.9501,-1.8071 z m 1.9981,-0.004 c 0,0.406 0.0938,0.7061 0.2829,0.8992 0.1871,0.1939 0.4229,0.292 0.707,0.292 0.2871,0 0.523,-0.097 0.7069,-0.288 0.186,-0.1911 0.2781,-0.4972 0.2781,-0.921 0,-0.3932 -0.0941,-0.686 -0.2789,-0.8802 -0.186,-0.191 -0.417,-0.2868 -0.6911,-0.2868 -0.2911,0 -0.5321,0.0969 -0.72,0.2919 -0.1891,0.1959 -0.2849,0.4941 -0.2849,0.8929 z m 4.5839,1.0072 1.98,-0.1641 c 0.0819,0.206 0.195,0.3529 0.343,0.441 0.146,0.0899 0.3419,0.1341 0.5879,0.1341 0.267,0 0.4751,-0.051 0.6222,-0.1511 0.1128,-0.0731 0.1698,-0.1669 0.1698,-0.2781 0,-0.1258 -0.0748,-0.2219 -0.2239,-0.2908 -0.108,-0.0482 -0.394,-0.1071 -0.8569,-0.1791 -0.692,-0.1069 -1.1742,-0.2041 -1.4432,-0.294 -0.269,-0.091 -0.496,-0.2429 -0.68,-0.4561 -0.1859,-0.214 -0.2778,-0.4578 -0.2778,-0.7319 0,-0.2999 0.0998,-0.559 0.2988,-0.775 0.199,-0.218 0.4742,-0.3801 0.8232,-0.4861 0.3489,-0.1069 0.8178,-0.161 1.4059,-0.161 0.62,0 1.0781,0.0422 1.374,0.1241 0.2959,0.0831 0.542,0.2109 0.739,0.3861 0.197,0.1738 0.3611,0.4088 0.4929,0.7058 l -1.891,0.163 c -0.0498,-0.146 -0.1298,-0.2528 -0.2449,-0.3209 -0.1581,-0.0921 -0.3461,-0.138 -0.5689,-0.138 -0.2242,0 -0.3892,0.036 -0.4912,0.106 -0.1038,0.07 -0.1539,0.1551 -0.1539,0.254 0,0.1131 0.0649,0.1959 0.195,0.2531 0.1309,0.057 0.415,0.108 0.8529,0.1548 0.6622,0.0652 1.1551,0.1562 1.478,0.273 0.324,0.117 0.572,0.284 0.7421,0.5011 0.1721,0.2169 0.258,0.4539 0.258,0.7149 0,0.2631 -0.091,0.5191 -0.273,0.7671 -0.18,0.248 -0.4669,0.4459 -0.8561,0.5919 -0.3909,0.1482 -0.9229,0.2211 -1.595,0.2211 -0.9488,0 -1.626,-0.1191 -2.0288,-0.3561 -0.4031,-0.2358 -0.6622,-0.574 -0.7781,-1.0088 z m 10.046,-5.019 h 2.2241 v 6.277 h -2.2241 z m 3.6981,1.7299 h 1.8609 v 0.6639 c 0.269,-0.2778 0.538,-0.4739 0.811,-0.5919 0.2721,-0.117 0.6021,-0.1751 0.9879,-0.1751 0.415,0 0.7421,0.064 0.983,0.1922 0.2421,0.1289 0.44,0.3208 0.593,0.5748 0.3121,-0.2968 0.599,-0.5 0.8581,-0.606 0.2571,-0.1069 0.5749,-0.161 0.9541,-0.161 0.559,0 0.9958,0.144 1.3079,0.4351 0.3141,0.29 0.47,0.7429 0.47,1.3589 v 2.8562 h -1.9981 v -2.59 c 0,-0.2061 -0.0448,-0.3592 -0.1369,-0.4581 -0.1341,-0.157 -0.3011,-0.2361 -0.5001,-0.2361 -0.2338,0 -0.4249,0.0751 -0.568,0.2222 -0.144,0.1488 -0.214,0.3878 -0.214,0.7158 v 2.3462 h -1.9999 v -2.505 c 0,-0.2001 -0.0139,-0.3342 -0.038,-0.4062 -0.0439,-0.1139 -0.117,-0.2058 -0.2211,-0.2758 -0.1049,-0.07 -0.2279,-0.106 -0.3679,-0.106 -0.229,0 -0.4161,0.0768 -0.5641,0.2268 -0.1468,0.1522 -0.22,0.4002 -0.22,0.7452 v 2.321 h -1.9978 z m 9.7718,2.2859 c 0,-0.6928 0.2682,-1.2659 0.802,-1.7138 0.5371,-0.4502 1.26,-0.6752 2.1702,-0.6752 1.042,0 1.8289,0.2642 2.3609,0.792 0.4281,0.4252 0.6421,0.9501 0.6421,1.5721 0,0.699 -0.2662,1.2719 -0.796,1.7189 -0.5292,0.4462 -1.2642,0.669 -2.2011,0.669 -0.8359,0 -1.512,-0.1849 -2.029,-0.5559 -0.633,-0.4589 -0.9491,-1.0619 -0.9491,-1.8071 z m 1.9982,-0.004 c 0,0.406 0.093,0.7061 0.282,0.8992 0.188,0.1939 0.423,0.292 0.707,0.292 0.288,0 0.5238,-0.097 0.707,-0.288 0.1859,-0.1911 0.278,-0.4972 0.278,-0.921 0,-0.3932 -0.0932,-0.686 -0.28,-0.8802 -0.1851,-0.191 -0.4162,-0.2868 -0.69,-0.2868 -0.2911,0 -0.5312,0.0969 -0.72,0.2919 -0.1891,0.1959 -0.284,0.4941 -0.284,0.8929 z m 4.9459,-4.0118 h 2.0129 v 2.175 c 0.1992,-0.1831 0.4271,-0.3192 0.6791,-0.411 0.2529,-0.091 0.533,-0.1372 0.8411,-0.1372 0.631,0 1.1568,0.2001 1.5718,0.5972 0.4141,0.4 0.6211,0.9709 0.6211,1.715 0,0.4969 -0.095,0.9349 -0.2841,1.3119 -0.189,0.3781 -0.451,0.661 -0.7849,0.8481 -0.335,0.1868 -0.7061,0.2798 -1.116,0.2798 -0.3489,0 -0.669,-0.0658 -0.9601,-0.1948 -0.218,-0.104 -0.4558,-0.297 -0.714,-0.5802 v 0.6732 h -1.8669 z m 2.0001,3.9909 c 0,0.39 0.0828,0.674 0.25,0.8489 0.169,0.1761 0.3818,0.2642 0.6409,0.2642 0.237,0 0.438,-0.0861 0.6001,-0.2591 0.161,-0.1729 0.243,-0.464 0.243,-0.871 0,-0.36 -0.08,-0.624 -0.237,-0.792 -0.1602,-0.1681 -0.3521,-0.2529 -0.578,-0.2529 -0.2701,0 -0.491,0.0879 -0.6642,0.2628 -0.17,0.1752 -0.2548,0.441 -0.2548,0.7991 z m 4.754,-3.9909 h 1.995 v 1.1868 h -1.995 z m 0,1.7299 h 1.995 v 4.546 h -1.995 z m 3.3358,-1.7299 h 1.999 v 6.277 h -1.999 z m 3.3452,0 h 1.9939 v 1.1868 h -1.9939 z m 0,1.7299 h 1.9939 v 4.546 h -1.9939 z m 5.0839,1.4721 -1.904,-0.1752 c 0.072,-0.2908 0.1749,-0.521 0.3109,-0.6868 0.135,-0.167 0.3291,-0.311 0.5851,-0.434 0.182,-0.089 0.4351,-0.1582 0.754,-0.2061 0.3189,-0.0479 0.665,-0.0731 1.0381,-0.0731 0.5969,0 1.078,0.0292 1.44,0.087 0.3619,0.0592 0.665,0.182 0.9059,0.3671 0.1701,0.129 0.3039,0.3101 0.402,0.5451 0.0969,0.237 0.146,0.4598 0.146,0.6749 v 2.0089 c 0,0.2132 0.0161,0.381 0.047,0.502 0.032,0.1222 0.0981,0.2761 0.2041,0.4652 h -1.8711 c -0.076,-0.1171 -0.1231,-0.2061 -0.1469,-0.267 -0.0232,-0.0621 -0.0462,-0.1582 -0.0691,-0.29 -0.2611,0.2208 -0.5219,0.377 -0.779,0.4708 -0.3521,0.125 -0.762,0.188 -1.2291,0.188 -0.6199,0 -1.0908,-0.1259 -1.4139,-0.377 -0.3201,-0.2498 -0.4819,-0.5599 -0.4819,-0.9278 0,-0.3461 0.1159,-0.6302 0.3478,-0.8521 0.233,-0.2231 0.659,-0.3889 1.2821,-0.4969 0.7489,-0.131 1.2351,-0.2231 1.457,-0.2761 0.22,-0.053 0.4561,-0.1219 0.703,-0.207 0,-0.2151 -0.049,-0.3639 -0.15,-0.4501 -0.1009,-0.085 -0.2789,-0.129 -0.5351,-0.129 -0.326,0 -0.5698,0.0462 -0.7328,0.1372 -0.1281,0.072 -0.231,0.2058 -0.3101,0.402 z m 1.728,0.917 c -0.2741,0.0859 -0.559,0.1618 -0.8549,0.2279 -0.4051,0.093 -0.6622,0.1859 -0.7702,0.2769 -0.112,0.095 -0.1658,0.2021 -0.1658,0.3212 0,0.1378 0.0538,0.2489 0.1638,0.3368 0.11,0.0861 0.2702,0.1301 0.483,0.1301 0.222,0 0.4281,-0.0471 0.62,-0.1409 0.191,-0.0941 0.3251,-0.2101 0.4062,-0.3441 0.0799,-0.1361 0.1179,-0.313 0.1179,-0.5301 z m -0.8501,-4.2251 h 1.7141 l -1.582,1.279 h -0.955 z m 4.0161,1.836 h 1.8649 v 0.7439 c 0.18,-0.3209 0.366,-0.5429 0.5562,-0.6639 0.1908,-0.1219 0.4269,-0.1831 0.7069,-0.1831 0.2951,0 0.6169,0.0802 0.965,0.2392 l -0.616,1.243 c -0.2339,-0.087 -0.4221,-0.129 -0.559,-0.129 -0.2599,0 -0.4629,0.095 -0.6069,0.2818 -0.2052,0.2662 -0.309,0.7631 -0.309,1.491 v 1.5242 h -2.0021 z m 4.504,-1.7299 h 1.995 v 1.1868 h -1.995 z m 0,1.7299 h 1.995 v 4.546 h -1.995 z m 3.0231,2.2859 c 0,-0.6928 0.2668,-1.2659 0.8028,-1.7138 0.5372,-0.4502 1.258,-0.6752 2.1702,-0.6752 1.042,0 1.8289,0.2642 2.361,0.792 0.428,0.4252 0.6409,0.9501 0.6409,1.5721 0,0.699 -0.265,1.2719 -0.7951,1.7189 -0.5309,0.4462 -1.264,0.669 -2.2028,0.669 -0.8362,0 -1.51,-0.1849 -2.0271,-0.5559 -0.6341,-0.4589 -0.9499,-1.0619 -0.9499,-1.8071 z m 1.9979,-0.004 c 0,0.406 0.0941,0.7061 0.2829,0.8992 0.1871,0.1939 0.4232,0.292 0.7072,0.292 0.2869,0 0.523,-0.097 0.707,-0.288 0.1859,-0.1911 0.2778,-0.4972 0.2778,-0.921 0,-0.3932 -0.0938,-0.686 -0.2798,-0.8802 -0.1851,-0.191 -0.4161,-0.2868 -0.6902,-0.2868 -0.2909,0 -0.531,0.0969 -0.7209,0.2919 -0.1879,0.1959 -0.284,0.4941 -0.284,0.8929 z m 4.5839,1.0072 1.9791,-0.1641 c 0.082,0.206 0.1971,0.3529 0.343,0.441 0.148,0.0899 0.343,0.1341 0.5891,0.1341 0.2679,0 0.4748,-0.051 0.6219,-0.1511 0.1131,-0.0731 0.1701,-0.1669 0.1701,-0.2781 0,-0.1258 -0.0751,-0.2219 -0.2242,-0.2908 -0.1089,-0.0482 -0.3938,-0.1071 -0.857,-0.1791 -0.6919,-0.1069 -1.1738,-0.2041 -1.4428,-0.294 -0.269,-0.091 -0.4961,-0.2429 -0.6812,-0.4561 -0.1848,-0.214 -0.2769,-0.4578 -0.2769,-0.7319 0,-0.2999 0.1001,-0.559 0.2991,-0.775 0.1998,-0.218 0.4728,-0.3801 0.8229,-0.4861 0.3489,-0.1069 0.8169,-0.161 1.4059,-0.161 0.62,0 1.0781,0.0422 1.374,0.1241 0.2962,0.0831 0.542,0.2109 0.7381,0.3861 0.1979,0.1738 0.362,0.4088 0.4941,0.7058 l -1.8901,0.163 c -0.0511,-0.146 -0.131,-0.2528 -0.2461,-0.3209 -0.1579,-0.0921 -0.3469,-0.138 -0.5689,-0.138 -0.2239,0 -0.3889,0.036 -0.491,0.106 -0.104,0.07 -0.1539,0.1551 -0.1539,0.254 0,0.1131 0.0649,0.1959 0.1948,0.2531 0.1312,0.057 0.415,0.108 0.8532,0.1548 0.6619,0.0652 1.1548,0.1562 1.478,0.273 0.324,0.117 0.5709,0.284 0.7418,0.5011 0.1721,0.2169 0.2571,0.4539 0.2571,0.7149 0,0.2631 -0.0901,0.5191 -0.2721,0.7671 -0.1809,0.248 -0.4669,0.4459 -0.8558,0.5919 -0.3912,0.1482 -0.9232,0.2211 -1.5942,0.2211 -0.951,0 -1.6268,-0.1191 -2.031,-0.3561 -0.402,-0.2358 -0.6608,-0.574 -0.777,-1.0088 z" />
    <path
       inkscape:connector-curvature="0"
       id="path151"
       style="fill:#ffcb00;fill-rule:evenodd"
       d="m 62.8136,67.9687 c 0,0.15 -0.248,0.5202 -0.7452,1.1081 h -0.1029 c -0.0771,-0.0309 -0.125,-0.1449 -0.1451,-0.3399 -0.042,-0.396 -0.1778,-0.7211 -0.4088,-0.9731 -0.231,-0.252 -0.508,-0.3779 -0.8311,-0.3779 -0.3039,0 -0.565,0.1108 -0.7849,0.3319 -0.2191,0.2209 -0.328,0.4851 -0.328,0.792 0,0.2231 0.0689,0.4621 0.2089,0.7181 0.1389,0.2548 0.4989,0.6599 1.0809,1.2149 0.5822,0.5539 0.9561,0.9961 1.1211,1.3249 0.1649,0.3291 0.248,0.6412 0.248,0.9371 0,0.6849 -0.2971,1.2881 -0.8909,1.8091 -0.5942,0.521 -1.2892,0.7818 -2.086,0.7818 -0.6571,0 -1.1991,-0.1528 -1.6271,-0.4589 -0.4261,-0.3059 -0.6401,-0.5551 -0.6401,-0.747 0,-0.1071 0.1182,-0.3571 0.3521,-0.75 0.235,-0.392 0.3699,-0.589 0.4039,-0.589 0.123,0 0.2112,0.036 0.2622,0.108 0.0519,0.0711 0.0879,0.2029 0.1069,0.394 0.0581,0.6009 0.2029,1.0139 0.4359,1.241 0.2322,0.227 0.5361,0.3399 0.9091,0.3399 0.4071,0 0.7631,-0.1398 1.0661,-0.4238 0.305,-0.2821 0.457,-0.6092 0.457,-0.9822 0,-0.1919 -0.0601,-0.3969 -0.178,-0.614 -0.1171,-0.2169 -0.4502,-0.5859 -0.9981,-1.1078 -0.5471,-0.5221 -0.906,-0.9641 -1.0741,-1.3252 -0.1698,-0.362 -0.254,-0.714 -0.254,-1.0559 0,-0.5961 0.2251,-1.1441 0.6741,-1.6441 0.451,-0.5 1.0491,-0.75 1.7949,-0.75 0.565,0 1.0361,0.1292 1.4111,0.3892 0.375,0.2599 0.5621,0.4759 0.5621,0.6488 z" />
    <path
       inkscape:connector-curvature="0"
       id="path153"
       style="fill:#ffcb00;fill-rule:evenodd"
       d="m 69.5978,73.8761 c -0.5071,0.481 -0.9332,0.8359 -1.275,1.0641 -0.3422,0.2299 -0.65,0.3439 -0.923,0.3439 -0.303,0 -0.5372,-0.1211 -0.701,-0.3631 -0.1641,-0.2418 -0.2452,-0.5709 -0.2452,-0.9859 -0.4229,0.464 -0.8019,0.8081 -1.1359,1.0289 -0.335,0.2211 -0.6621,0.332 -0.981,0.332 -0.2931,0 -0.527,-0.1208 -0.7039,-0.3629 -0.1771,-0.244 -0.265,-0.572 -0.265,-0.9881 0,-0.7988 0.269,-1.9259 0.807,-3.38 l 1.5409,-0.307 c -0.6341,1.8442 -0.951,3.0271 -0.9521,3.5501 0,0.369 0.138,0.553 0.415,0.553 0.2001,0 0.4481,-0.163 0.7441,-0.4881 0.297,-0.324 0.481,-0.608 0.5541,-0.851 l 0.756,-2.457 1.5699,-0.317 c -0.362,1.1571 -0.6109,1.971 -0.7461,2.4401 -0.1349,0.4689 -0.203,0.7971 -0.203,0.9859 0,0.362 0.1242,0.5431 0.3702,0.5431 0.1999,0 0.4969,-0.1831 0.889,-0.5479 l 0.485,-0.4561 z" />
    <path
       inkscape:connector-curvature="0"
       id="path155"
       style="fill:#ffcb00;fill-rule:evenodd"
       d="m 71.5304,74.1936 c 0.3839,0 0.747,-0.3271 1.0868,-0.9831 0.3411,-0.6559 0.5111,-1.2611 0.5111,-1.815 0,-0.2151 -0.0479,-0.3829 -0.144,-0.504 -0.0969,-0.121 -0.225,-0.182 -0.3869,-0.182 -0.3841,0 -0.7492,0.3269 -1.093,0.9811 -0.3442,0.6528 -0.5162,1.2549 -0.5162,1.806 0,0.2069 0.0501,0.3758 0.1522,0.504 0.102,0.1289 0.2319,0.193 0.39,0.193 z m 4.2228,-0.3172 c -0.616,0.5851 -1.0559,0.9652 -1.3209,1.1421 -0.2659,0.1769 -0.5199,0.2659 -0.762,0.2659 -0.608,0 -0.894,-0.5369 -0.8589,-1.6098 -0.3852,0.5499 -0.7401,0.9558 -1.065,1.2169 -0.3251,0.2619 -0.6601,0.3929 -1.0071,0.3929 -0.3379,0 -0.6259,-0.1588 -0.862,-0.476 -0.237,-0.3169 -0.3549,-0.7069 -0.3549,-1.169 0,-0.5768 0.159,-1.127 0.4759,-1.65 0.3181,-0.523 0.724,-0.9448 1.22,-1.2688 0.497,-0.3232 0.9349,-0.4842 1.3159,-0.4842 0.4802,0 0.8172,0.2211 1.0091,0.663 l 1.179,-0.6519 h 0.324 l -0.5089,1.6911 c -0.2622,0.8499 -0.3931,1.4329 -0.3931,1.7479 0,0.3299 0.117,0.496 0.352,0.496 0.15,0 0.315,-0.0799 0.4961,-0.2401 0.18,-0.159 0.434,-0.4019 0.7608,-0.729 z" />
    <path
       inkscape:connector-curvature="0"
       id="path157"
       style="fill:#ffcb00;fill-rule:evenodd"
       d="m 81.4242,68.0036 c 0,0.9229 -0.3399,1.385 -1.021,1.385 -0.3308,0 -0.614,-0.1001 -0.8479,-0.3011 0.2231,-0.3381 0.396,-0.718 0.519,-1.142 0.3039,0.189 0.548,0.2829 0.732,0.2829 0.208,0 0.4141,-0.0749 0.6179,-0.2248 z m 0.1151,5.8728 c -0.9,0.9462 -1.573,1.419 -2.0191,1.419 -0.2458,0 -0.4539,-0.125 -0.6228,-0.377 -0.1692,-0.252 -0.254,-0.5689 -0.254,-0.9499 0,-0.8189 0.277,-1.9531 0.8309,-3.403 l 1.4649,-0.3061 h 0.0692 l -0.5772,1.8051 c -0.2378,0.7469 -0.3569,1.279 -0.3569,1.599 0,0.127 0.0281,0.2291 0.0831,0.3079 0.0558,0.079 0.1259,0.1182 0.2109,0.1182 0.15,0 0.301,-0.0542 0.453,-0.1642 0.1519,-0.11 0.3909,-0.3469 0.718,-0.7129 z" />
    <path
       inkscape:connector-curvature="0"
       id="path159"
       style="fill:#ffcb00;fill-rule:evenodd"
       d="m 90.037,73.8761 c -0.4799,0.47 -0.8918,0.8209 -1.2339,1.057 -0.343,0.2339 -0.675,0.351 -0.9981,0.351 -0.254,0 -0.4558,-0.0879 -0.6029,-0.2619 -0.148,-0.1752 -0.2231,-0.4111 -0.2231,-0.7081 0,-0.415 0.104,-0.9411 0.3121,-1.5801 0.208,-0.6378 0.3109,-1.027 0.3109,-1.165 0,-0.123 -0.0629,-0.1848 -0.1899,-0.1848 -0.038,0 -0.0839,0.013 -0.138,0.0408 -0.0579,0.0272 -0.1231,0.0652 -0.1959,0.1151 -0.0731,0.0541 -0.1522,0.119 -0.237,0.1961 -0.0842,0.0769 -0.1732,0.165 -0.265,0.2659 -0.1001,0.1001 -0.2002,0.2089 -0.3002,0.328 -0.169,0.2001 -0.269,0.3671 -0.2999,0.502 l -0.1919,0.8249 -0.349,1.3632 -1.4612,0.2639 0.5601,-2.3769 c 0.0419,-0.1732 0.0921,-0.4272 0.1491,-0.7611 0.0578,-0.335 0.087,-0.5349 0.087,-0.6001 0,-0.1309 -0.0442,-0.1958 -0.1321,-0.1958 -0.028,0 -0.066,0.013 -0.1159,0.0399 -0.0581,0.027 -0.123,0.0681 -0.1962,0.1211 -0.085,0.0618 -0.1749,0.1349 -0.271,0.2188 -0.104,0.093 -0.216,0.1981 -0.335,0.318 -0.127,0.127 -0.258,0.2671 -0.3918,0.421 -0.1851,0.2081 -0.3002,0.4501 -0.3461,0.7262 -0.0621,0.3308 -0.104,0.6268 -0.127,0.889 -0.0269,0.2619 -0.0431,0.5539 -0.047,0.877 l -1.2799,0.3059 C 81.4971,74.824 81.482,74.4552 81.482,74.159 c 0,-0.7038 0.0732,-1.3158 0.2191,-1.838 0.146,-0.5199 0.3839,-1.129 0.7149,-1.8249 l 1.3961,-0.271 c -0.25,0.627 -0.4439,1.2331 -0.5819,1.817 1.034,-1.2039 1.8269,-1.806 2.3768,-1.806 0.2001,0 0.362,0.082 0.487,0.245 0.125,0.1641 0.1882,0.3781 0.1882,0.644 0,0.123 -0.0201,0.3501 -0.0581,0.68 0.65,-0.65 1.1169,-1.074 1.3989,-1.2719 0.2832,-0.1981 0.544,-0.2971 0.7821,-0.2971 0.212,0 0.3849,0.0851 0.5199,0.254 0.134,0.169 0.2021,0.385 0.2021,0.646 0,0.4119 -0.1131,0.9409 -0.3399,1.588 -0.2262,0.6449 -0.339,1.0721 -0.339,1.2801 0,0.2149 0.0779,0.3218 0.2358,0.3218 0.1001,0 0.239,-0.0658 0.417,-0.199 0.1791,-0.1318 0.4912,-0.438 0.936,-0.9139 z" />
    <path
       inkscape:connector-curvature="0"
       id="path161"
       style="fill:#ffcb00;fill-rule:evenodd"
       d="m 93.3144,70.6514 c -0.0578,-0.0229 -0.1409,-0.0348 -0.248,-0.0348 -0.4998,0 -0.8918,0.2619 -1.1738,0.7849 -0.2832,0.523 -0.4241,1.135 -0.4241,1.8351 0,0.3889 0.0609,0.69 0.184,0.9048 0.123,0.216 0.295,0.3232 0.5139,0.3232 0.2732,0 0.5692,-0.2512 0.8881,-0.7552 -0.3609,-0.4538 -0.542,-0.9428 -0.542,-1.4649 0,-0.616 0.267,-1.1469 0.8019,-1.5931 z m 1.904,3.225 c -0.1958,0.1732 -0.3869,0.2962 -0.5709,0.3671 -0.1851,0.07 -0.331,0.106 -0.439,0.106 -0.277,0 -0.5519,-0.1069 -0.8249,-0.3229 -0.5542,0.8388 -1.188,1.2578 -1.9032,1.2578 -0.447,0 -0.8079,-0.167 -1.0848,-0.5018 -0.277,-0.335 -0.415,-0.7792 -0.415,-1.3331 0,-0.877 0.3109,-1.6299 0.934,-2.2581 0.6228,-0.629 1.3669,-0.9439 2.2328,-0.9439 0.3272,0 0.5661,0.036 0.7181,0.1071 0.1519,0.0709 0.2449,0.1548 0.28,0.2509 0.034,0.0961 0.0519,0.2171 0.0519,0.3631 0,0.72 -0.1959,1.6019 -0.589,2.649 0.1961,0.18 0.4022,0.2698 0.6182,0.2698 0.2568,0 0.5879,-0.2239 0.9918,-0.674 z" />
    <path
       inkscape:connector-curvature="0"
       id="path163"
       style="fill:#ffcb00;fill-rule:evenodd"
       d="m 97.2651,70.7852 c 0.6219,-0.6109 1.093,-1.1738 1.4159,-1.6909 0.322,-0.5161 0.483,-0.907 0.483,-1.1721 0,-0.1068 -0.0238,-0.1959 -0.072,-0.265 -0.0488,-0.0689 -0.1069,-0.1029 -0.1769,-0.1029 -0.451,-9e-4 -1.0009,1.076 -1.65,3.2309 z m 3.128,3.0912 c -0.2659,0.2849 -0.5879,0.428 -0.9689,0.428 -0.301,0 -0.6191,-0.1431 -0.9581,-0.428 -0.411,0.4728 -0.7761,0.8229 -1.093,1.0508 -0.317,0.2262 -0.6631,0.339 -1.0361,0.339 -0.3339,0 -0.6148,-0.138 -0.8419,-0.415 -0.2271,-0.2769 -0.3399,-0.621 -0.3399,-1.0329 0,-0.8039 0.2339,-1.887 0.703,-3.2499 0.47,-1.3641 0.9289,-2.395 1.3788,-3.096 0.508,-0.161 0.955,-0.2912 1.3411,-0.3921 0.3869,-0.1 0.6091,-0.1491 0.667,-0.1491 0.1111,0 0.208,0.0732 0.2911,0.2211 0.083,0.148 0.1238,0.326 0.1238,0.5341 0,0.4308 -0.1788,0.9348 -0.538,1.514 -0.358,0.5788 -0.822,1.152 -1.3918,1.7209 l -0.7571,0.756 c -0.237,0.8379 -0.3549,1.457 -0.3549,1.853 0,0.2191 0.0499,0.3951 0.1499,0.525 0.1001,0.1309 0.2311,0.1961 0.3929,0.1961 0.188,0 0.3592,-0.0601 0.5111,-0.1791 0.1519,-0.1191 0.322,-0.3039 0.5111,-0.5539 -0.1922,-0.33 -0.288,-0.669 -0.288,-1.0151 0,-0.557 0.1508,-1.0729 0.453,-1.546 0.3019,-0.4731 0.6239,-0.7101 0.966,-0.7101 0.1349,0 0.2449,0.0601 0.332,0.18 0.0858,0.1191 0.1298,0.2761 0.1298,0.472 0,0.631 -0.3538,1.4921 -1.0619,2.5852 0.2121,0.2619 0.4519,0.392 0.7209,0.392 0.1692,0 0.3152,-0.0391 0.4382,-0.1182 0.123,-0.078 0.2968,-0.2599 0.5199,-0.5448 z" />
    <path
       inkscape:connector-curvature="0"
       id="path165"
       style="fill:#ffcb00;fill-rule:evenodd"
       d="m 103.1104,68.0036 c 0,0.9229 -0.3399,1.385 -1.0211,1.385 -0.3308,0 -0.6139,-0.1001 -0.8478,-0.3011 0.2228,-0.3381 0.396,-0.718 0.519,-1.142 0.3039,0.189 0.548,0.2829 0.7319,0.2829 0.2081,0 0.4139,-0.0749 0.618,-0.2248 z m 0.1151,5.8728 c -0.9,0.9462 -1.573,1.419 -2.0192,1.419 -0.246,0 -0.4538,-0.125 -0.623,-0.377 -0.169,-0.252 -0.254,-0.5689 -0.254,-0.9499 0,-0.8189 0.2772,-1.9531 0.8311,-3.403 l 1.465,-0.3061 h 0.0691 l -0.5771,1.8051 c -0.2381,0.7469 -0.3569,1.279 -0.3569,1.599 0,0.127 0.0278,0.2291 0.0828,0.3079 0.0561,0.079 0.1261,0.1182 0.2112,0.1182 0.1499,0 0.301,-0.0542 0.4529,-0.1642 0.152,-0.11 0.3909,-0.3469 0.7181,-0.7129 z" />
    <path
       inkscape:connector-curvature="0"
       id="path167"
       style="fill:#ffcb00;fill-rule:evenodd"
       d="m 104.835,71.6206 c 0.489,-0.5429 0.885,-1.1509 1.188,-1.8258 0.3041,-0.6741 0.4569,-1.2532 0.4569,-1.7382 0,-0.1429 -0.0218,-0.2568 -0.064,-0.3439 -0.042,-0.087 -0.0959,-0.1301 -0.1619,-0.1301 -0.142,0 -0.3489,0.3541 -0.6199,1.063 -0.271,0.7081 -0.5372,1.7 -0.7991,2.975 z m 2.209,2.2552 c -0.5221,0.4819 -0.9811,0.836 -1.3751,1.065 -0.3948,0.2288 -0.771,0.3438 -1.1279,0.3438 -0.4121,0 -0.7441,-0.161 -0.9949,-0.479 -0.252,-0.3189 -0.3782,-0.7478 -0.3782,-1.2869 0,-0.8079 0.1752,-1.7771 0.525,-2.907 0.3501,-1.131 0.775,-2.1741 1.275,-3.1269 l 1.465,-0.5431 c 0.047,-0.015 0.081,-0.0229 0.104,-0.0229 0.1111,0 0.203,0.0819 0.2741,0.2449 0.0709,0.1641 0.1069,0.3841 0.1069,0.661 0,0.7849 -0.1809,1.544 -0.542,2.2791 -0.362,0.7339 -0.9269,1.5188 -1.6968,2.353 -0.0312,0.4008 -0.0462,0.6749 -0.0462,0.826 0,0.3348 0.062,0.599 0.1851,0.796 0.123,0.1959 0.2871,0.2928 0.4901,0.2928 0.2078,0 0.4289,-0.074 0.6639,-0.2239 0.2341,-0.1511 0.5921,-0.4621 1.072,-0.9349 z" />
    <path
       inkscape:connector-curvature="0"
       id="path169"
       style="fill:#ffcb00;fill-rule:evenodd"
       d="m 109.7675,68.0036 c 0,0.9229 -0.3398,1.385 -1.021,1.385 -0.3308,0 -0.614,-0.1001 -0.8478,-0.3011 0.2228,-0.3381 0.396,-0.718 0.519,-1.142 0.3039,0.189 0.5479,0.2829 0.7319,0.2829 0.2081,0 0.4141,-0.0749 0.6179,-0.2248 z m 0.1151,5.8728 c -0.9,0.9462 -1.5729,1.419 -2.0191,1.419 -0.246,0 -0.4538,-0.125 -0.6228,-0.377 -0.1692,-0.252 -0.2542,-0.5689 -0.2542,-0.9499 0,-0.8189 0.2772,-1.9531 0.8311,-3.403 l 1.4649,-0.3061 h 0.0692 l -0.5771,1.8051 c -0.2379,0.7469 -0.3569,1.279 -0.3569,1.599 0,0.127 0.0278,0.2291 0.083,0.3079 0.0559,0.079 0.1259,0.1182 0.2109,0.1182 0.15,0 0.3011,-0.0542 0.453,-0.1642 0.152,-0.11 0.3909,-0.3469 0.718,-0.7129 z" />
    <path
       inkscape:connector-curvature="0"
       id="path171"
       style="fill:#ffcb00;fill-rule:evenodd"
       d="m 115.502,67.4846 c -0.104,0.4189 -0.318,0.7888 -0.644,1.1069 -0.324,0.32 -0.8269,0.6681 -1.508,1.0451 l -0.3521,-0.121 c 0.5732,-0.6662 0.9652,-1.2972 1.1772,-1.893 z m -3.681,6.709 c 0.3849,0 0.7469,-0.3271 1.0879,-0.9831 0.3402,-0.6559 0.5102,-1.2611 0.5102,-1.815 0,-0.2151 -0.0482,-0.3829 -0.144,-0.504 -0.0961,-0.121 -0.225,-0.182 -0.386,-0.182 -0.385,0 -0.7501,0.3269 -1.0942,0.9811 -0.3439,0.6528 -0.5159,1.2549 -0.5159,1.806 0,0.2069 0.051,0.3758 0.153,0.504 0.1021,0.1289 0.2319,0.193 0.389,0.193 z m 4.223,-0.3172 c -0.6151,0.5851 -1.0559,0.9652 -1.3209,1.1421 -0.2651,0.1769 -0.5191,0.2659 -0.762,0.2659 -0.6072,0 -0.894,-0.5369 -0.8592,-1.6098 -0.3849,0.5499 -0.7398,0.9558 -1.0638,1.2169 -0.326,0.2619 -0.661,0.3929 -1.0072,0.3929 -0.339,0 -0.6258,-0.1588 -0.862,-0.476 -0.2369,-0.3169 -0.3549,-0.7069 -0.3549,-1.169 0,-0.5768 0.1579,-1.127 0.476,-1.65 0.3169,-0.523 0.7239,-0.9448 1.22,-1.2688 0.4961,-0.3232 0.934,-0.4842 1.315,-0.4842 0.481,0 0.8169,0.2211 1.01,0.663 l 1.1789,-0.6519 h 0.3232 l -0.508,1.6911 c -0.2631,0.8499 -0.3932,1.4329 -0.3932,1.7479 0,0.3299 0.1171,0.496 0.3512,0.496 0.15,0 0.3158,-0.0799 0.4958,-0.2401 0.18,-0.159 0.434,-0.4019 0.7611,-0.729 z" />
    <path
       inkscape:connector-curvature="0"
       id="path173"
       style="fill:#ffcb00;fill-rule:evenodd"
       d="m 120.3541,73.8761 c -0.9661,0.9459 -1.7101,1.4199 -2.2331,1.4199 -0.2339,0 -0.4329,-0.0998 -0.5939,-0.2979 -0.1621,-0.197 -0.2421,-0.442 -0.2421,-0.7351 0,-0.5419 0.29,-1.269 0.8711,-2.1809 -0.2852,0.1471 -0.5961,0.248 -0.9351,0.3061 -0.2501,0.4618 -0.6421,0.9578 -1.177,1.4879 h -0.1321 v -0.519 c 0.2991,-0.311 0.5712,-0.646 0.813,-1.0029 -0.3308,-0.1471 -0.4958,-0.364 -0.4958,-0.652 0,-0.2971 0.1009,-0.6131 0.303,-0.9502 0.2019,-0.3359 0.4799,-0.504 0.8329,-0.504 0.301,0 0.4501,0.1531 0.4501,0.461 0,0.2432 -0.0862,0.589 -0.2591,1.0391 0.6381,-0.07 1.196,-0.5581 1.673,-1.466 l 0.525,-0.023 -0.5369,1.4771 c -0.2231,0.6228 -0.3671,1.0469 -0.432,1.2719 -0.066,0.2251 -0.0981,0.425 -0.0981,0.597 0,0.1619 0.0369,0.2911 0.112,0.3869 0.0751,0.0961 0.176,0.144 0.303,0.144 0.1381,0 0.271,-0.047 0.398,-0.1408 0.127,-0.095 0.4119,-0.3552 0.8541,-0.7821 z" />
    <path
       inkscape:connector-curvature="0"
       id="path175"
       style="fill:#ffcb00;fill-rule:evenodd"
       d="m 123.0762,68.0036 c 0,0.9229 -0.3399,1.385 -1.021,1.385 -0.3311,0 -0.614,-0.1001 -0.8479,-0.3011 0.2228,-0.3381 0.396,-0.718 0.5188,-1.142 0.3041,0.189 0.5482,0.2829 0.733,0.2829 0.2081,0 0.4141,-0.0749 0.6171,-0.2248 z m 0.1151,5.8728 c -0.8992,0.9462 -1.5721,1.419 -2.018,1.419 -0.2472,0 -0.4541,-0.125 -0.623,-0.377 -0.1701,-0.252 -0.254,-0.5689 -0.254,-0.9499 0,-0.8189 0.2769,-1.9531 0.8308,-3.403 l 1.4652,-0.3061 h 0.0689 l -0.5771,1.8051 c -0.2378,0.7469 -0.358,1.279 -0.358,1.599 0,0.127 0.028,0.2291 0.0842,0.3079 0.0558,0.079 0.1258,0.1182 0.21,0.1182 0.1508,0 0.301,-0.0542 0.453,-0.1642 0.1528,-0.11 0.392,-0.3469 0.718,-0.7129 z" />
    <path
       inkscape:connector-curvature="0"
       id="path177"
       style="fill:#ffcb00;fill-rule:evenodd"
       d="m 125.131,74.1936 c 0.385,0 0.747,-0.3271 1.0868,-0.9831 0.3411,-0.6559 0.5111,-1.2611 0.5111,-1.815 0,-0.2151 -0.0479,-0.3829 -0.144,-0.504 -0.0969,-0.121 -0.225,-0.182 -0.3869,-0.182 -0.3841,0 -0.7492,0.3269 -1.093,0.9811 -0.3442,0.6528 -0.5162,1.2549 -0.5162,1.806 0,0.2069 0.051,0.3758 0.1522,0.504 0.102,0.1289 0.2319,0.193 0.39,0.193 z m 4.2228,-0.3172 c -0.616,0.5851 -1.0559,0.9652 -1.3218,1.1421 -0.2642,0.1769 -0.5182,0.2659 -0.7602,0.2659 -0.6089,0 -0.8949,-0.5369 -0.8609,-1.6098 -0.3841,0.5499 -0.739,0.9558 -1.0639,1.2169 -0.324,0.2619 -0.6601,0.3929 -1.006,0.3929 -0.339,0 -0.6261,-0.1588 -0.8631,-0.476 -0.237,-0.3169 -0.3549,-0.7069 -0.3549,-1.169 0,-0.5768 0.159,-1.127 0.4759,-1.65 0.3169,-0.523 0.724,-0.9448 1.22,-1.2688 0.497,-0.3232 0.9349,-0.4842 1.3159,-0.4842 0.4802,0 0.8172,0.2211 1.01,0.663 l 1.1781,-0.6519 h 0.3251 l -0.51,1.6911 c -0.2622,0.8499 -0.3931,1.4329 -0.3931,1.7479 0,0.3299 0.117,0.496 0.352,0.496 0.1491,0 0.315,-0.0799 0.4961,-0.2401 0.1808,-0.159 0.434,-0.4019 0.7608,-0.729 z" />
    <path
       inkscape:connector-curvature="0"
       id="path179"
       style="fill:#ffcb00;fill-rule:evenodd"
       d="m 136.6173,73.8761 c -0.4921,0.485 -0.9431,0.841 -1.3541,1.067 -0.409,0.2279 -0.8359,0.341 -1.283,0.341 -0.5,0 -0.9119,-0.1619 -1.237,-0.487 -0.3251,-0.3249 -0.487,-0.737 -0.487,-1.2371 0,-0.82 0.2991,-1.5769 0.896,-2.2708 0.599,-0.6942 1.245,-1.0412 1.9421,-1.0412 0.3418,0 0.621,0.095 0.8359,0.2852 0.2151,0.1908 0.324,0.438 0.324,0.741 0,0.108 -0.021,0.1888 -0.061,0.2429 -0.0411,0.0539 -0.117,0.108 -0.2279,0.161 l -0.6692,0.3181 c -0.0808,0.038 -0.1409,0.0569 -0.1789,0.0569 -0.0541,0 -0.0811,-0.0371 -0.0811,-0.115 0,-0.0309 0.0122,-0.1321 0.0352,-0.3031 0.023,-0.1709 0.034,-0.2758 0.034,-0.314 0,-0.1698 -0.0351,-0.3059 -0.106,-0.4099 -0.0712,-0.1041 -0.167,-0.1559 -0.286,-0.1559 -0.2812,0 -0.5372,0.208 -0.7702,0.623 -0.233,0.4159 -0.3489,0.889 -0.3489,1.4199 0,0.4569 0.1091,0.8229 0.3291,1.0959 0.2179,0.2732 0.5108,0.4101 0.877,0.4101 0.311,0 0.6038,-0.0901 0.8799,-0.269 0.2741,-0.1791 0.5859,-0.4529 0.9371,-0.822 z" />
    <path
       inkscape:connector-curvature="0"
       id="path181"
       style="fill:#ffcb00;fill-rule:evenodd"
       d="m 139.8927,70.6514 c -0.0581,-0.0229 -0.14,-0.0348 -0.248,-0.0348 -0.5,0 -0.8912,0.2619 -1.1741,0.7849 -0.282,0.523 -0.4241,1.135 -0.4241,1.8351 0,0.3889 0.0621,0.69 0.1851,0.9048 0.1231,0.216 0.294,0.3232 0.514,0.3232 0.2721,0 0.5689,-0.2512 0.8881,-0.7552 -0.362,-0.4538 -0.5432,-0.9428 -0.5432,-1.4649 0,-0.616 0.2682,-1.1469 0.8022,-1.5931 z m 1.9038,3.225 c -0.1959,0.1732 -0.3858,0.2962 -0.5709,0.3671 -0.1851,0.07 -0.3311,0.106 -0.438,0.106 -0.2769,0 -0.5519,-0.1069 -0.826,-0.3229 -0.553,0.8388 -1.188,1.2578 -1.9029,1.2578 -0.4461,0 -0.8081,-0.167 -1.0851,-0.5018 -0.2761,-0.335 -0.415,-0.7792 -0.415,-1.3331 0,-0.877 0.3121,-1.6299 0.9349,-2.2581 0.6231,-0.629 1.3671,-0.9439 2.232,-0.9439 0.3271,0 0.5661,0.036 0.7191,0.1071 0.1511,0.0709 0.245,0.1548 0.279,0.2509 0.0351,0.0961 0.0521,0.2171 0.0521,0.3631 0,0.72 -0.1961,1.6019 -0.5882,2.649 0.1962,0.18 0.4011,0.2698 0.6171,0.2698 0.258,0 0.588,-0.2239 0.9919,-0.674 z" />
    <path
       inkscape:connector-curvature="0"
       id="path183"
       style="fill:#ffcb00;fill-rule:evenodd"
       d="m 150.2891,73.8761 c -0.4811,0.47 -0.8929,0.8209 -1.2339,1.057 -0.343,0.2339 -0.6761,0.351 -0.9981,0.351 -0.254,0 -0.4561,-0.0879 -0.6041,-0.2619 -0.1468,-0.1752 -0.2219,-0.4111 -0.2219,-0.7081 0,-0.415 0.104,-0.9411 0.3121,-1.5801 0.2069,-0.6378 0.3109,-1.027 0.3109,-1.165 0,-0.123 -0.0629,-0.1848 -0.1899,-0.1848 -0.0391,0 -0.085,0.013 -0.1392,0.0408 -0.057,0.0272 -0.123,0.0652 -0.1959,0.1151 -0.0731,0.0541 -0.151,0.119 -0.2361,0.1961 -0.085,0.0769 -0.1729,0.165 -0.2659,0.2659 -0.1,0.1001 -0.199,0.2089 -0.2999,0.328 -0.1692,0.2001 -0.2681,0.3671 -0.3002,0.502 l -0.191,0.8249 -0.349,1.3632 -1.4609,0.2639 0.559,-2.3769 c 0.0419,-0.1732 0.0921,-0.4272 0.1499,-0.7611 0.0581,-0.335 0.0862,-0.5349 0.0862,-0.6001 0,-0.1309 -0.0442,-0.1958 -0.1321,-0.1958 -0.0269,0 -0.0661,0.013 -0.116,0.0399 -0.0569,0.027 -0.123,0.0681 -0.1961,0.1211 -0.0839,0.0618 -0.1749,0.1349 -0.2699,0.2188 -0.1051,0.093 -0.216,0.1981 -0.335,0.318 -0.127,0.127 -0.258,0.2671 -0.3929,0.421 -0.1851,0.2081 -0.3002,0.4501 -0.3461,0.7262 -0.061,0.3308 -0.1029,0.6268 -0.127,0.889 -0.0269,0.2619 -0.0431,0.5539 -0.0459,0.877 l -1.281,0.3059 c -0.0301,-0.4431 -0.0462,-0.8119 -0.0462,-1.1081 0,-0.7038 0.074,-1.3158 0.2191,-1.838 0.1471,-0.5199 0.385,-1.129 0.716,-1.8249 l 1.3961,-0.271 c -0.2511,0.627 -0.4442,1.2331 -0.5831,1.817 1.0349,-1.2039 1.8281,-1.806 2.3769,-1.806 0.2001,0 0.3631,0.082 0.4881,0.245 0.125,0.1641 0.1871,0.3781 0.1871,0.644 0,0.123 -0.019,0.3501 -0.057,0.68 0.65,-0.65 1.116,-1.074 1.3989,-1.2719 0.2829,-0.1981 0.5431,-0.2971 0.7821,-0.2971 0.2109,0 0.3849,0.0851 0.5199,0.254 0.1329,0.169 0.2009,0.385 0.2009,0.646 0,0.4119 -0.1119,0.9409 -0.339,1.588 -0.2268,0.6449 -0.3399,1.0721 -0.3399,1.2801 0,0.2149 0.0791,0.3218 0.2359,0.3218 0.1,0 0.2392,-0.0658 0.4172,-0.199 0.1789,-0.1318 0.4918,-0.438 0.9369,-0.9139 z" />
    <path
       inkscape:connector-curvature="0"
       id="path185"
       style="fill:#ffcb00;fill-rule:evenodd"
       d="m 152.3819,74.3263 c 0.1998,0.331 0.421,0.496 0.6639,0.496 0.3889,0 0.7319,-0.2951 1.0301,-0.8861 0.2979,-0.589 0.4479,-1.1659 0.4479,-1.7269 0,-0.2959 -0.061,-0.5351 -0.182,-0.718 -0.1211,-0.1831 -0.277,-0.2741 -0.47,-0.2741 -0.15,0 -0.307,0.0672 -0.472,0.2021 -0.1661,0.135 -0.2911,0.2909 -0.375,0.47 -0.085,0.1789 -0.1811,0.4921 -0.2891,0.9369 z m 0.667,-3.0861 c 0.2758,-0.3339 0.538,-0.5808 0.7838,-0.7419 0.246,-0.159 0.519,-0.2389 0.8192,-0.2389 0.3869,0 0.7038,0.1488 0.9479,0.447 0.2441,0.2979 0.3659,0.6888 0.3659,1.1738 0,0.8501 -0.2928,1.63 -0.8798,2.34 -0.5871,0.7101 -1.2252,1.0642 -1.9131,1.0642 -0.1919,0 -0.3439,-0.021 -0.4561,-0.063 -0.1109,-0.0431 -0.258,-0.1411 -0.4388,-0.2951 -0.2761,1.2189 -0.455,2.196 -0.5361,2.9311 l -1.4641,0.2588 c 0.273,-1.8 0.6211,-3.6219 1.0432,-5.4689 -0.506,0.6661 -0.849,1.0749 -1.0261,1.2291 h -0.133 v -0.519 c 0.7311,-0.7892 1.3329,-1.7462 1.806,-2.8732 l 1.3039,-0.237 z" />
    <path
       inkscape:connector-curvature="0"
       id="path187"
       style="fill:#ffcb00;fill-rule:evenodd"
       d="m 158.5498,71.6206 c 0.4881,-0.5429 0.885,-1.1509 1.188,-1.8258 0.3039,-0.6741 0.457,-1.2532 0.457,-1.7382 0,-0.1429 -0.0219,-0.2568 -0.0641,-0.3439 -0.0428,-0.087 -0.097,-0.1301 -0.1619,-0.1301 -0.142,0 -0.3489,0.3541 -0.6199,1.063 -0.271,0.7081 -0.5372,1.7 -0.7991,2.975 z m 2.2099,2.2552 c -0.523,0.4819 -0.9819,0.836 -1.3759,1.065 -0.3949,0.2288 -0.7711,0.3438 -1.1279,0.3438 -0.4122,0 -0.743,-0.161 -0.995,-0.479 -0.252,-0.3189 -0.3781,-0.7478 -0.3781,-1.2869 0,-0.8079 0.1751,-1.7771 0.5241,-2.907 0.3509,-1.131 0.7758,-2.1741 1.2759,-3.1269 l 1.466,-0.5431 c 0.046,-0.015 0.08,-0.0229 0.1029,-0.0229 0.1112,0 0.203,0.0819 0.2741,0.2449 0.0709,0.1641 0.1069,0.3841 0.1069,0.661 0,0.7849 -0.1808,1.544 -0.5428,2.2791 -0.3612,0.7339 -0.9272,1.5188 -1.6951,2.353 -0.0321,0.4008 -0.0471,0.6749 -0.0471,0.826 0,0.3348 0.0612,0.599 0.184,0.796 0.123,0.1959 0.288,0.2928 0.4921,0.2928 0.2069,0 0.428,-0.074 0.663,-0.2239 0.2341,-0.1511 0.5919,-0.4621 1.0729,-0.9349 z" />
    <path
       inkscape:connector-curvature="0"
       id="path189"
       style="fill:#ffcb00;fill-rule:evenodd"
       d="m 162.0517,72.8097 c 0.9842,-0.2769 1.478,-0.788 1.478,-1.5349 0,-0.3691 -0.1349,-0.5542 -0.4048,-0.5542 -0.2542,0 -0.496,0.193 -0.7262,0.5802 -0.2319,0.3858 -0.347,0.8898 -0.347,1.5089 z m 3.0232,1.0661 c -0.4881,0.4819 -0.9261,0.836 -1.315,1.065 -0.3892,0.2288 -0.8172,0.3438 -1.2872,0.3438 -0.523,0 -0.944,-0.1669 -1.266,-0.502 -0.3209,-0.335 -0.481,-0.7758 -0.481,-1.3218 0,-0.8152 0.282,-1.5522 0.847,-2.2121 0.5661,-0.6599 1.1931,-0.989 1.881,-0.989 0.3581,0 0.6441,0.0921 0.8601,0.2769 0.216,0.184 0.3231,0.4261 0.3231,0.7271 0,0.7951 -0.847,1.442 -2.5381,1.938 0.1531,0.7501 0.5559,1.1251 1.205,1.1251 0.254,0 0.4961,-0.0691 0.7271,-0.2052 0.231,-0.1358 0.5788,-0.4388 1.044,-0.9088 z" />
    <path
       inkscape:connector-curvature="0"
       id="path191"
       style="fill:#ffcb00;fill-rule:evenodd"
       d="m 168.3985,73.8761 c -0.485,0.481 -0.904,0.8359 -1.258,1.0641 -0.3541,0.2299 -0.69,0.3439 -1.01,0.3439 -0.3311,0 -0.5981,-0.1389 -0.8042,-0.4181 -0.2058,-0.279 -0.309,-0.6449 -0.309,-1.099 0,-0.4 0.099,-0.9278 0.296,-1.584 l 0.2452,-0.8739 -0.4431,0.0229 0.1851,-0.9048 0.548,-0.0241 0.5419,-1.7989 1.541,-0.3172 -0.5959,2.007 0.815,-0.046 -0.1902,0.8881 -0.8958,0.0701 -0.3841,1.292 c -0.1341,0.449 -0.2001,0.807 -0.2001,1.0718 0,0.1811 0.0451,0.3282 0.1361,0.4422 0.0901,0.1128 0.206,0.1709 0.3489,0.1709 0.197,0 0.3912,-0.0629 0.5831,-0.1879 0.193,-0.125 0.4759,-0.3861 0.8501,-0.7821 z" />
    <path
       inkscape:connector-curvature="0"
       id="path193"
       style="fill:#ffcb00;fill-rule:evenodd"
       d="m 170.3312,74.1936 c 0.3849,0 0.7469,-0.3271 1.0868,-0.9831 0.341,-0.6559 0.5111,-1.2611 0.5111,-1.815 0,-0.2151 -0.048,-0.3829 -0.144,-0.504 -0.097,-0.121 -0.2251,-0.182 -0.387,-0.182 -0.3841,0 -0.7489,0.3269 -1.093,0.9811 -0.3441,0.6528 -0.5159,1.2549 -0.5159,1.806 0,0.2069 0.051,0.3758 0.1519,0.504 0.1021,0.1289 0.2319,0.193 0.3901,0.193 z m 4.223,-0.3172 c -0.6162,0.5851 -1.0562,0.9652 -1.3221,1.1421 -0.2639,0.1769 -0.5181,0.2659 -0.7599,0.2659 -0.6092,0 -0.8952,-0.5369 -0.8612,-1.6098 -0.3838,0.5499 -0.739,0.9558 -1.0638,1.2169 -0.324,0.2619 -0.6602,0.3929 -1.0061,0.3929 -0.339,0 -0.6261,-0.1588 -0.8631,-0.476 -0.237,-0.3169 -0.3549,-0.7069 -0.3549,-1.169 0,-0.5768 0.159,-1.127 0.4759,-1.65 0.3172,-0.523 0.724,-0.9448 1.2201,-1.2688 0.4969,-0.3232 0.9351,-0.4842 1.3161,-0.4842 0.4799,0 0.8169,0.2211 1.01,0.663 l 1.1778,-0.6519 h 0.3251 l -0.5099,1.6911 c -0.262,0.8499 -0.3932,1.4329 -0.3932,1.7479 0,0.3299 0.1171,0.496 0.3521,0.496 0.1491,0 0.3149,-0.0799 0.496,-0.2401 0.1809,-0.159 0.434,-0.4019 0.7611,-0.729 z" />
    <path
       inkscape:connector-curvature="0"
       id="path195"
       style="fill:#ffcb00;fill-rule:evenodd"
       d="m 176.2148,72.9367 c -0.2271,-0.362 -0.3399,-0.7492 -0.3399,-1.1611 0,-0.339 0.1049,-0.7761 0.3149,-1.311 0.2089,-0.5349 0.3441,-0.93 0.4059,-1.184 0.061,-0.254 0.093,-0.5301 0.093,-0.826 0,-0.239 -0.0178,-0.4431 -0.053,-0.612 -0.034,-0.1701 -0.0519,-0.2659 -0.0519,-0.2889 0,-0.0691 0.197,-0.1862 0.5919,-0.352 0.3932,-0.165 0.6222,-0.2481 0.684,-0.2481 0.0731,0 0.142,0.1131 0.2081,0.341 0.064,0.2271 0.0969,0.4831 0.0969,0.7679 0,0.3892 -0.0689,0.7821 -0.2078,1.1812 -0.138,0.398 -0.3741,0.853 -0.7061,1.3649 -0.3331,0.5131 -0.5561,0.8909 -0.667,1.1381 -0.1111,0.2458 -0.1669,0.4768 -0.1669,0.6928 0,0.0162 0.008,0.0751 0.0238,0.1792 0.0142,0.104 0.0221,0.1658 0.0221,0.1848 0,0.034 -0.0819,0.0782 -0.248,0.1332 z m 0.5601,0.9919 c 0.0229,0 0.0348,0.0189 0.0348,0.0569 0,0.0391 -0.0598,0.2041 -0.1788,0.4972 -0.1202,0.2928 -0.2452,0.4998 -0.375,0.6208 -0.131,0.1202 -0.313,0.1811 -0.5491,0.1811 -0.222,0 -0.447,-0.0549 -0.6749,-0.1641 -0.226,-0.11 -0.3391,-0.1848 -0.3391,-0.227 0,-0.0119 0.0179,-0.0519 0.057,-0.1208 0.199,-0.269 0.3541,-0.6211 0.4609,-1.0582 0.0122,-0.0918 0.0312,-0.138 0.0581,-0.138 0.0471,0 0.0981,0.0351 0.1559,0.104 0.258,0.2421 0.5281,0.3631 0.813,0.3631 0.123,0 0.2401,-0.019 0.349,-0.0569 0.1102,-0.0392 0.172,-0.0581 0.1882,-0.0581 z" />
    <path
       inkscape:connector-curvature="0"
       id="path197"
       style="fill:#ffffff;fill-rule:evenodd"
       d="m 181.8095,33.7497 -0.1128,0.4479 c -0.368,-0.0941 -0.648,-0.2619 -0.8411,-0.5071 -0.193,-0.243 -0.2891,-0.542 -0.2891,-0.8929 0,-0.3651 0.074,-0.6611 0.2222,-0.8901 0.1489,-0.2279 0.364,-0.402 0.6449,-0.521 0.2809,-0.1188 0.584,-0.1789 0.906,-0.1789 0.3529,0 0.6599,0.0669 0.9221,0.2021 0.2619,0.1338 0.4609,0.326 0.5978,0.574 0.1372,0.2478 0.2041,0.5219 0.2041,0.8209 0,0.3379 -0.0859,0.6231 -0.2591,0.853 -0.1718,0.231 -0.4138,0.392 -0.7259,0.483 l -0.1041,-0.4419 c 0.2461,-0.0782 0.4261,-0.1911 0.5372,-0.341 0.1128,-0.1491 0.1689,-0.3371 0.1689,-0.563 0,-0.2602 -0.062,-0.477 -0.1859,-0.6511 -0.125,-0.1749 -0.2931,-0.2971 -0.502,-0.3691 -0.2112,-0.07 -0.4272,-0.106 -0.6511,-0.106 -0.2869,0 -0.5381,0.042 -0.7529,0.1262 -0.214,0.0839 -0.3742,0.2148 -0.4811,0.392 -0.106,0.176 -0.1581,0.3679 -0.1581,0.574 0,0.2509 0.072,0.4629 0.216,0.6358 0.1451,0.1741 0.36,0.2911 0.644,0.3532 z" />
    <path
       inkscape:connector-curvature="0"
       id="path199"
       style="fill:#ffffff;fill-rule:evenodd"
       d="m 182.5136,35.2036 v 0.9621 c 0,0.2041 0.021,0.364 0.0621,0.479 0.0431,0.116 0.1111,0.2041 0.2041,0.2639 0.093,0.0601 0.1939,0.0902 0.303,0.0902 0.1599,0 0.292,-0.059 0.3949,-0.1752 0.102,-0.1159 0.1539,-0.2988 0.1539,-0.5499 v -1.0701 z m -1.891,-0.4479 h 3.3832 v 1.5001 c 0,0.3019 -0.0301,0.5298 -0.0921,0.6869 -0.0601,0.157 -0.1681,0.282 -0.3209,0.3761 -0.1531,0.0938 -0.3232,0.1409 -0.51,0.1409 -0.2401,0 -0.4422,-0.0771 -0.606,-0.233 -0.165,-0.1551 -0.2702,-0.3949 -0.3152,-0.7189 -0.0559,0.1179 -0.1129,0.2078 -0.1679,0.269 -0.1201,0.131 -0.269,0.2549 -0.4501,0.3708 l -0.921,0.589 v -0.5629 l 0.7042,-0.4479 c 0.2038,-0.1301 0.3588,-0.2381 0.466,-0.3231 0.108,-0.0839 0.1839,-0.1599 0.227,-0.2271 0.0428,-0.0669 0.072,-0.1349 0.0899,-0.2038 0.01,-0.051 0.015,-0.1341 0.015,-0.2492 v -0.519 h -1.5021 z" />
    <path
       inkscape:connector-curvature="0"
       id="path201"
       style="fill:#ffffff;fill-rule:evenodd"
       d="m 180.6229,38.1706 h 3.3832 v 2.4449 h -0.4 V 38.6174 H 182.57 v 1.8711 h -0.396 v -1.8711 h -1.152 v 2.0761 h -0.3991 z" />
    <path
       inkscape:connector-curvature="0"
       id="path203"
       style="fill:#ffffff;fill-rule:evenodd"
       d="m 181.8095,43.7251 -0.1128,0.4482 c -0.368,-0.0941 -0.648,-0.2622 -0.8411,-0.5071 -0.193,-0.243 -0.2891,-0.542 -0.2891,-0.893 0,-0.3651 0.074,-0.661 0.2222,-0.89 0.1489,-0.2279 0.364,-0.402 0.6449,-0.521 0.2809,-0.1191 0.584,-0.1789 0.906,-0.1789 0.3529,0 0.6599,0.0669 0.9221,0.2018 0.2619,0.1341 0.4609,0.326 0.5978,0.574 0.1372,0.2481 0.2041,0.5222 0.2041,0.8212 0,0.3379 -0.0859,0.6228 -0.2591,0.853 -0.1718,0.231 -0.4138,0.392 -0.7259,0.483 l -0.1041,-0.4422 c 0.2461,-0.078 0.4261,-0.1908 0.5372,-0.341 0.1128,-0.1488 0.1689,-0.3368 0.1689,-0.563 0,-0.2599 -0.062,-0.477 -0.1859,-0.6508 -0.125,-0.1752 -0.2931,-0.2971 -0.502,-0.3691 -0.2112,-0.07 -0.4272,-0.106 -0.6511,-0.106 -0.2869,0 -0.5381,0.042 -0.7529,0.1259 -0.214,0.0842 -0.3742,0.2151 -0.4811,0.392 -0.106,0.176 -0.1581,0.3682 -0.1581,0.574 0,0.2512 0.072,0.4632 0.216,0.6361 0.1451,0.1741 0.36,0.2911 0.644,0.3529 z" />
    <path
       inkscape:connector-curvature="0"
       id="path205"
       style="fill:#ffffff;fill-rule:evenodd"
       d="m 180.6229,44.8011 h 3.3832 v 0.4479 h -3.3832 z" />
    <path
       inkscape:connector-curvature="0"
       id="path207"
       style="fill:#ffffff;fill-rule:evenodd"
       d="m 181.5841,47.1216 0.055,0.4042 c -0.2582,0.0108 -0.4362,0.059 -0.532,0.146 -0.0941,0.0859 -0.142,0.2049 -0.142,0.3569 0,0.1131 0.0249,0.2089 0.0779,0.2911 0.051,0.0808 0.121,0.1369 0.2089,0.1678 0.089,0.0301 0.2302,0.0462 0.4241,0.0462 h 2.3301 v 0.4479 h -2.3052 c -0.2829,0 -0.502,-0.0349 -0.6579,-0.1029 -0.1539,-0.0692 -0.273,-0.1772 -0.3549,-0.3251 -0.0822,-0.1489 -0.1222,-0.3229 -0.1222,-0.523 0,-0.2971 0.0851,-0.523 0.256,-0.6809 0.1701,-0.1582 0.4241,-0.2342 0.7622,-0.2282 z" />
    <path
       inkscape:connector-curvature="0"
       id="path209"
       style="fill:#ffffff;fill-rule:evenodd"
       d="m 180.6229,49.7771 h 0.474 v 0.4739 h -0.474 z" />
    <path
       inkscape:connector-curvature="0"
       id="path211"
       style="fill:#ffffff;fill-rule:evenodd"
       d="m 181.8146,53.5015 h 1.5239 l -1.5239,-1.059 z m -1.1911,0 h 0.8101 v -1.468 h 0.381 l 2.1909,1.544 v 0.339 h -2.1909 v 0.457 h -0.381 v -0.457 h -0.8101 z" />
    <path
       inkscape:connector-curvature="0"
       id="path213"
       style="fill:#ffffff;fill-rule:evenodd"
       d="m 181.7188,55.2573 c -0.1432,0 -0.2792,0.0301 -0.4102,0.091 -0.1309,0.0601 -0.231,0.1451 -0.299,0.2551 -0.0678,0.1089 -0.1029,0.2231 -0.1029,0.343 0,0.176 0.072,0.3271 0.212,0.453 0.1429,0.127 0.3339,0.1891 0.578,0.1891 0.233,0 0.4181,-0.0621 0.5519,-0.186 0.1341,-0.125 0.2021,-0.282 0.2021,-0.4711 0,-0.188 -0.068,-0.347 -0.2021,-0.4779 -0.1338,-0.131 -0.311,-0.1962 -0.5298,-0.1962 z m 1.459,1.6951 -0.0332,-0.413 c 0.1641,-0.036 0.2821,-0.089 0.3552,-0.1559 0.1188,-0.1122 0.178,-0.2511 0.178,-0.415 0,-0.1332 -0.0371,-0.2491 -0.11,-0.3492 -0.0952,-0.131 -0.235,-0.2339 -0.4172,-0.309 -0.184,-0.0748 -0.4448,-0.1148 -0.7838,-0.1168 0.1528,0.099 0.2659,0.2208 0.3399,0.366 0.0739,0.144 0.1111,0.2968 0.1111,0.4549 0,0.2761 -0.1021,0.5131 -0.3062,0.707 -0.2029,0.1939 -0.4668,0.292 -0.79,0.292 -0.212,0 -0.409,-0.046 -0.5919,-0.1381 -0.1819,-0.091 -0.3211,-0.2168 -0.4189,-0.377 -0.0961,-0.1599 -0.144,-0.3418 -0.144,-0.5448 0,-0.345 0.127,-0.6282 0.381,-0.8461 0.2539,-0.218 0.6729,-0.328 1.258,-0.328 0.6539,0 1.129,0.1219 1.4258,0.3631 0.2591,0.2109 0.3881,0.4938 0.3881,0.851 0,0.2659 -0.074,0.4838 -0.224,0.6539 -0.1491,0.1701 -0.3549,0.2719 -0.6179,0.305 z" />
    <path
       inkscape:connector-curvature="0"
       id="path215"
       style="fill:#ffffff;fill-rule:evenodd"
       d="m 181.8146,58.7575 h 1.5239 l -1.5239,-1.059 z m -1.1911,0 h 0.8101 v -1.468 h 0.381 l 2.1909,1.544 v 0.339 h -2.1909 v 0.457 h -0.381 v -0.457 h -0.8101 z" />
    <path
       inkscape:connector-curvature="0"
       id="path217"
       style="fill:#ffffff;fill-rule:evenodd"
       d="m 181.5099,60.0532 0.0368,0.436 c -0.2129,0.032 -0.373,0.1072 -0.4779,0.2251 -0.108,0.1171 -0.1621,0.2591 -0.1621,0.426 0,0.199 0.0762,0.3691 0.2262,0.5069 0.1508,0.138 0.352,0.208 0.6009,0.208 0.237,0 0.4229,-0.0669 0.5601,-0.199 0.137,-0.134 0.205,-0.3078 0.205,-0.5238 0,-0.1341 -0.0301,-0.254 -0.091,-0.3611 -0.0601,-0.1089 -0.1392,-0.1931 -0.2361,-0.254 l 0.051,-0.3909 1.7359,0.3279 v 1.6821 h -0.396 v -1.3501 l -0.9079,-0.182 c 0.14,0.203 0.2109,0.4161 0.2109,0.6389 0,0.2951 -0.1018,0.544 -0.307,0.747 -0.2038,0.2041 -0.4669,0.305 -0.7889,0.305 -0.3061,0 -0.5709,-0.089 -0.7931,-0.2668 -0.2738,-0.2171 -0.4099,-0.513 -0.4099,-0.8881 0,-0.3081 0.0859,-0.5601 0.2571,-0.754 0.1718,-0.1939 0.4008,-0.3061 0.686,-0.3331 z" />
  </g>
</svg>
